<svg width="180" height="95" viewBox="0 0 180 95" fill="none" xmlns="http://www.w3.org/2000/svg">
    <defs>
        <linearGradient id="grad1" x1="0%" y1="0%" x2="100%" y2="0%">
            <stop offset="15%" style="stop-color:rgb(13, 94, 154);stop-opacity:1" />
            <stop offset="100%" style="stop-color:rgb(0, 72, 126);stop-opacity:1" />
        </linearGradient>
    </defs>
    <rect width="180" height="95" fill="white"/>
    <path d="M95.0471 35.763C97.3633 37.5447 99.0263 39.9797 99.9172 43.0087H95.8786C95.1065 41.0488 93.9187 39.5046 92.2557 38.3168C90.5928 37.129 88.5141 36.5944 86.079 36.5944C84.1785 36.5944 82.4562 37.0696 80.912 38.0198C79.3679 38.9701 78.18 40.2767 77.2892 42.0584C76.3983 43.7808 75.9826 45.8594 75.9826 48.1757C75.9826 50.492 76.3983 52.5113 77.2892 54.2336C78.18 55.9559 79.3679 57.3219 80.912 58.2128C82.4562 59.1631 84.1785 59.6382 86.079 59.6382C88.5141 59.6382 90.5334 59.0443 92.2557 57.9159C93.9187 56.728 95.1659 55.1838 95.8786 53.2239H99.9172C99.0263 56.3123 97.4227 58.6879 95.0471 60.4697C92.7308 62.2514 89.7019 63.1423 86.1384 63.1423C83.347 63.1423 80.912 62.489 78.8333 61.2417C76.6953 59.9945 75.0323 58.2128 73.8445 55.8965C72.6567 53.6397 72.0627 51.0265 72.0627 48.1163C72.0627 45.2062 72.6567 42.5929 73.8445 40.2767C75.0323 37.9604 76.6953 36.1787 78.8333 34.9315C80.9714 33.6843 83.4064 33.031 86.1384 33.031C89.7613 33.0904 92.7308 33.9812 95.0471 35.763Z"
          fill="black"/>
    <path d="M108.826 39.9203V62.9047H105.025V39.9203H108.826Z" fill="black"/>
    <path d="M139.353 59.5788V62.9047H136.502C134.186 62.9047 132.404 62.3702 131.276 61.2417C130.088 60.1133 129.553 58.2722 129.553 55.6589V43.2462H119.991V55.7184C119.991 57.2031 120.288 58.2128 120.823 58.7473C121.357 59.2818 122.308 59.5788 123.674 59.5788H126.049V62.9047H123.198C120.823 62.9047 119.1 62.3702 117.913 61.2417C116.725 60.1133 116.19 58.2722 116.19 55.6589V43.2462H112.271V39.9203H116.19V34.2188H120.051V39.9797H129.613V34.2188H133.473V39.9797H139.412V43.3056H133.473V55.7777C133.473 57.2625 133.77 58.2722 134.305 58.8067C134.839 59.3412 135.789 59.6382 137.155 59.6382H139.353V59.5788Z"
          fill="black"/>
    <path d="M156.933 41.3457C158.477 42.4741 159.546 43.9589 160.199 45.8V39.9203H164V62.9047H160.199V57.025C159.605 58.8661 158.477 60.4103 156.933 61.4793C155.388 62.6077 153.488 63.1422 151.231 63.1422C149.212 63.1422 147.371 62.6671 145.767 61.7168C144.163 60.7666 142.916 59.4006 142.025 57.6189C141.135 55.8372 140.659 53.7585 140.659 51.3828C140.659 49.0072 141.135 46.8691 142.025 45.0873C142.916 43.3056 144.163 41.9396 145.767 40.9894C147.371 40.0391 149.152 39.564 151.231 39.564C153.488 39.6234 155.388 40.2173 156.933 41.3457ZM146.717 45.2655C145.292 46.7503 144.579 48.829 144.579 51.4422C144.579 54.0554 145.292 56.1341 146.717 57.6189C148.143 59.1037 149.984 59.8757 152.359 59.8757C153.844 59.8757 155.21 59.5194 156.398 58.8067C157.586 58.094 158.536 57.1438 159.189 55.8372C159.843 54.5899 160.199 53.1051 160.199 51.4422C160.199 49.7792 159.843 48.2945 159.189 46.9879C158.536 45.6813 157.586 44.731 156.398 44.0183C155.21 43.3056 153.844 43.0087 152.359 43.0087C149.984 43.068 148.143 43.7807 146.717 45.2655Z"
          fill="black"/>
    <path d="M109.123 30.4771H104.728V34.8721H109.123V30.4771Z" fill="#00487e"/>
    <path d="M60.4219 45.2655V24.5974H36.7842C30.2512 24.5974 24.3715 27.27 20.0359 31.5462C15.7598 35.8223 13.0872 41.7614 13.0872 48.2945C13.0872 61.3605 23.6588 71.9321 36.7248 71.9321H60.3625V51.264H48.3061V45.3249H60.4219V45.2655ZM31.2014 45.2655H24.9654V39.3264H31.2014V45.2655ZM48.3655 45.2655H39.7538V51.2046H45.9898V57.1437H39.7538V51.2046H31.142V45.2655H39.7538V39.3264H48.3655V45.2655Z"
          fill="url(#grad1)"/>
</svg>
