<svg width="200" height="200" viewBox="0 0 200 200" fill="none" xmlns="http://www.w3.org/2000/svg">
<defs>
  <radialGradient id="i3-glow" cx="50%" cy="50%" r="50%"><stop offset="0%" stop-color="#FF1744" stop-opacity="0.14"/><stop offset="100%" stop-color="#FF1744" stop-opacity="0"/></radialGradient>
  <linearGradient id="i3-flow" x1="0%" y1="0%" x2="100%" y2="0%"><stop offset="0%" stop-color="#1e3a5f" stop-opacity="0.4"/><stop offset="50%" stop-color="#4a9eff" stop-opacity="0.9"/><stop offset="100%" stop-color="#1e3a5f" stop-opacity="0.4"/></linearGradient>
  <linearGradient id="i3-flow2" x1="0%" y1="0%" x2="100%" y2="0%"><stop offset="0%" stop-color="#1e3a5f" stop-opacity="0.3"/><stop offset="40%" stop-color="#2a7aff" stop-opacity="0.7"/><stop offset="100%" stop-color="#1e3a5f" stop-opacity="0.2"/></linearGradient>
  <filter id="f3-red"><feGaussianBlur stdDeviation="5" result="b"/><feMerge><feMergeNode in="b"/><feMergeNode in="SourceGraphic"/></feMerge></filter>
  <filter id="f3-blue"><feGaussianBlur stdDeviation="2.5" result="b"/><feMerge><feMergeNode in="b"/><feMergeNode in="SourceGraphic"/></feMerge></filter>
  <filter id="f3-soft"><feGaussianBlur stdDeviation="1.2" result="b"/><feMerge><feMergeNode in="b"/><feMergeNode in="SourceGraphic"/></feMerge></filter>
</defs>
<ellipse cx="100" cy="100" rx="70" ry="55" fill="url(#i3-glow)"/>
<g filter="url(#f3-soft)"><path d="M28 100 Q60 85 100 100 Q140 115 172 100" fill="none" stroke="url(#i3-flow)" stroke-width="2" stroke-linecap="round"/><path d="M35 80 Q65 68 100 78 Q135 68 165 80" fill="none" stroke="url(#i3-flow2)" stroke-width="1.5" stroke-linecap="round" opacity="0.7"/><path d="M35 120 Q65 132 100 122 Q135 132 165 120" fill="none" stroke="url(#i3-flow2)" stroke-width="1.5" stroke-linecap="round" opacity="0.7"/></g>
<g filter="url(#f3-soft)" opacity="0.5"><line x1="35" y1="80" x2="28" y2="100" stroke="#2a5a9a" stroke-width="1.2"/><line x1="35" y1="120" x2="28" y2="100" stroke="#2a5a9a" stroke-width="1.2"/><line x1="165" y1="80" x2="172" y2="100" stroke="#2a5a9a" stroke-width="1.2"/><line x1="165" y1="120" x2="172" y2="100" stroke="#2a5a9a" stroke-width="1.2"/><line x1="100" y1="78" x2="100" y2="122" stroke="#2a5a9a" stroke-width="1" stroke-dasharray="3 2"/></g>
<g filter="url(#f3-blue)"><circle cx="28" cy="100" r="10" fill="#0a1a2e" stroke="#4a9eff" stroke-width="1.8"/><circle cx="172" cy="100" r="10" fill="#0a1a2e" stroke="#4a9eff" stroke-width="1.8"/><circle cx="35" cy="80" r="7" fill="#0a1a2e" stroke="#2a6aaa" stroke-width="1.5"/><circle cx="165" cy="80" r="7" fill="#0a1a2e" stroke="#2a6aaa" stroke-width="1.5"/><circle cx="35" cy="120" r="7" fill="#0a1a2e" stroke="#2a6aaa" stroke-width="1.5"/><circle cx="165" cy="120" r="7" fill="#0a1a2e" stroke="#2a6aaa" stroke-width="1.5"/></g>
<g><circle cx="28" cy="100" r="3.5" fill="#2a6aaa" opacity="0.8"/><circle cx="172" cy="100" r="3.5" fill="#2a6aaa" opacity="0.8"/><circle cx="35" cy="80" r="2.5" fill="#2a6aaa" opacity="0.7"/><circle cx="165" cy="80" r="2.5" fill="#2a6aaa" opacity="0.7"/><circle cx="35" cy="120" r="2.5" fill="#2a6aaa" opacity="0.7"/><circle cx="165" cy="120" r="2.5" fill="#2a6aaa" opacity="0.7"/></g>
<g filter="url(#f3-blue)"><polygon points="100,72 118,100 100,128 82,100" fill="#08131f" stroke="#4a9eff" stroke-width="1.8"/><polygon points="100,80 112,100 100,120 88,100" fill="none" stroke="#2a5a9a" stroke-width="0.8" opacity="0.5"/></g>
<g filter="url(#f3-blue)"><ellipse cx="100" cy="100" rx="12" ry="5" fill="none" stroke="#4a9eff" stroke-width="1.2" opacity="0.6" transform="rotate(30 100 100)"/><ellipse cx="100" cy="100" rx="12" ry="5" fill="none" stroke="#4a9eff" stroke-width="1.2" opacity="0.5" transform="rotate(-30 100 100)"/><circle cx="100" cy="100" r="4" fill="#1e3a5f"/><circle cx="100" cy="100" r="2" fill="#4a9eff" opacity="0.9"/></g>
<g filter="url(#f3-soft)"><circle cx="65" cy="94" r="2.5" fill="#4a9eff" opacity="0.8"/><circle cx="135" cy="106" r="2.5" fill="#4a9eff" opacity="0.8"/><circle cx="72" cy="76" r="2" fill="#2a6aaa" opacity="0.6"/><circle cx="128" cy="124" r="2" fill="#2a6aaa" opacity="0.6"/></g>
<g filter="url(#f3-red)"><circle cx="100" cy="100" r="3" fill="#FF1744" opacity="0.85"/><circle cx="28" cy="100" r="2.5" fill="#FF1744" opacity="0.6"/><circle cx="172" cy="100" r="2.5" fill="#FF1744" opacity="0.6"/></g>
</svg>
