<svg width="200" height="200" viewBox="0 0 200 200" fill="none" xmlns="http://www.w3.org/2000/svg">
<defs>
  <radialGradient id="i2-bg" cx="50%" cy="40%" r="60%"><stop offset="0%" stop-color="#0a1525"/><stop offset="100%" stop-color="#04080f"/></radialGradient>
  <radialGradient id="i2-glow" cx="50%" cy="50%" r="50%"><stop offset="0%" stop-color="#FF1744" stop-opacity="0.12"/><stop offset="100%" stop-color="#FF1744" stop-opacity="0"/></radialGradient>
  <linearGradient id="i2-hl" x1="0%" y1="0%" x2="100%" y2="100%"><stop offset="0%" stop-color="#4a9eff" stop-opacity="0.15"/><stop offset="100%" stop-color="#4a9eff" stop-opacity="0"/></linearGradient>
  <filter id="f2-red"><feGaussianBlur stdDeviation="4.5" result="b"/><feMerge><feMergeNode in="b"/><feMergeNode in="SourceGraphic"/></feMerge></filter>
  <filter id="f2-blue"><feGaussianBlur stdDeviation="2" result="b"/><feMerge><feMergeNode in="b"/><feMergeNode in="SourceGraphic"/></feMerge></filter>
</defs>
<ellipse cx="100" cy="100" rx="80" ry="70" fill="url(#i2-glow)"/>
<path d="M72 55 Q68 42 78 38 Q92 32 100 38 Q108 32 122 38 Q132 42 128 55 Q136 60 132 70 Q128 80 118 80 L82 80 Q72 80 68 70 Q64 60 72 55Z" fill="#0d1a2e" stroke="#1e3a5f" stroke-width="1.2"/>
<path d="M72 55 Q68 42 78 38 Q92 32 100 38 Q108 32 122 38 Q132 42 128 55 Q136 60 132 70 Q128 80 118 80 L82 80 Q72 80 68 70 Q64 60 72 55Z" fill="url(#i2-hl)"/>
<g filter="url(#f2-blue)" opacity="0.7"><line x1="100" y1="36" x2="100" y2="78" stroke="#2a5a9a" stroke-width="0.8" stroke-dasharray="2 2"/><path d="M78 52 Q82 58 80 65" fill="none" stroke="#4a9eff" stroke-width="1.2" stroke-linecap="round"/><path d="M122 52 Q118 58 120 65" fill="none" stroke="#4a9eff" stroke-width="1.2" stroke-linecap="round"/><circle cx="88" cy="56" r="2" fill="#4a9eff" opacity="0.8"/><circle cx="100" cy="52" r="2.5" fill="#4a9eff" opacity="0.9"/><circle cx="112" cy="56" r="2" fill="#4a9eff" opacity="0.8"/></g>
<line x1="100" y1="80" x2="100" y2="96" stroke="#1e3a5f" stroke-width="1.5"/>
<circle cx="100" cy="88" r="2" fill="#2a6aaa" opacity="0.6"/>
<g filter="url(#f2-blue)">
  <ellipse cx="100" cy="158" rx="32" ry="8" fill="none" stroke="#1e4a7f" stroke-width="1.2" opacity="0.7"/>
  <line x1="68" y1="148" x2="68" y2="158" stroke="#1e4a7f" stroke-width="1.2" opacity="0.7"/>
  <line x1="132" y1="148" x2="132" y2="158" stroke="#1e4a7f" stroke-width="1.2" opacity="0.7"/>
  <ellipse cx="100" cy="148" rx="32" ry="8" fill="none" stroke="#2a5a9a" stroke-width="1.2" opacity="0.8"/>
  <line x1="68" y1="138" x2="68" y2="148" stroke="#2a5a9a" stroke-width="1.2" opacity="0.8"/>
  <line x1="132" y1="138" x2="132" y2="148" stroke="#2a5a9a" stroke-width="1.2" opacity="0.8"/>
  <ellipse cx="100" cy="138" rx="32" ry="8" fill="none" stroke="#4a9eff" stroke-width="1.8" opacity="0.9"/>
  <line x1="68" y1="96" x2="68" y2="138" stroke="#2a5a9a" stroke-width="1.2" opacity="0.6"/>
  <line x1="132" y1="96" x2="132" y2="138" stroke="#2a5a9a" stroke-width="1.2" opacity="0.6"/>
  <ellipse cx="100" cy="96" rx="32" ry="8" fill="none" stroke="#4a9eff" stroke-width="1.8" opacity="0.9"/>
  <line x1="84" y1="130" x2="94" y2="130" stroke="#4a9eff" stroke-width="1" opacity="0.5"/>
  <line x1="84" y1="143" x2="98" y2="143" stroke="#2a6aaa" stroke-width="1" opacity="0.5"/>
</g>
<g filter="url(#f2-red)"><ellipse cx="100" cy="96" rx="32" ry="8" fill="none" stroke="#FF1744" stroke-width="0.8" opacity="0.4"/><circle cx="100" cy="52" r="3" fill="#FF1744" opacity="0.8"/></g>
</svg>
