<svg width="200" height="200" viewBox="0 0 200 200" fill="none" xmlns="http://www.w3.org/2000/svg">
<defs>
  <radialGradient id="i1-sphere" cx="38%" cy="30%" r="65%"><stop offset="0%" stop-color="#1e2a3a"/><stop offset="55%" stop-color="#0d1520"/><stop offset="100%" stop-color="#060c14"/></radialGradient>
  <radialGradient id="i1-glow" cx="50%" cy="50%" r="50%"><stop offset="0%" stop-color="#FF1744" stop-opacity="0.18"/><stop offset="100%" stop-color="#FF1744" stop-opacity="0"/></radialGradient>
  <radialGradient id="i1-hl" cx="32%" cy="28%" r="40%"><stop offset="0%" stop-color="#7ab8ff" stop-opacity="0.22"/><stop offset="100%" stop-color="#7ab8ff" stop-opacity="0"/></radialGradient>
  <filter id="f1-red"><feGaussianBlur stdDeviation="4" result="b"/><feMerge><feMergeNode in="b"/><feMergeNode in="SourceGraphic"/></feMerge></filter>
  <filter id="f1-blue"><feGaussianBlur stdDeviation="2.5" result="b"/><feMerge><feMergeNode in="b"/><feMergeNode in="SourceGraphic"/></feMerge></filter>
  <filter id="f1-soft"><feGaussianBlur stdDeviation="1.5" result="b"/><feMerge><feMergeNode in="b"/><feMergeNode in="SourceGraphic"/></feMerge></filter>
</defs>
<ellipse cx="100" cy="105" rx="75" ry="70" fill="url(#i1-glow)"/>
<polygon points="38,60 62,48 78,65 70,90 38,88" fill="url(#i1-sphere)" stroke="#1e3a5f" stroke-width="1"/>
<polygon points="38,60 62,48 78,65 70,90 38,88" fill="url(#i1-hl)"/>
<g filter="url(#f1-blue)"><circle cx="56" cy="63" r="7" fill="none" stroke="#4a9eff" stroke-width="1.5" opacity="0.8"/><path d="M46 83 Q46 74 56 72 Q66 74 66 83" fill="none" stroke="#4a9eff" stroke-width="1.5" stroke-linecap="round" opacity="0.8"/></g>
<polygon points="122,48 148,52 162,72 155,95 128,98 112,78" fill="url(#i1-sphere)" stroke="#1e3a5f" stroke-width="1"/>
<polygon points="122,48 148,52 162,72 155,95 128,98 112,78" fill="url(#i1-hl)"/>
<g filter="url(#f1-blue)"><rect x="128" y="60" width="18" height="18" rx="3" fill="none" stroke="#4a9eff" stroke-width="1.5" opacity="0.8"/><line x1="137" y1="60" x2="137" y2="56" stroke="#4a9eff" stroke-width="1" opacity="0.6"/><line x1="132" y1="78" x2="132" y2="82" stroke="#4a9eff" stroke-width="1" opacity="0.6"/><line x1="142" y1="78" x2="142" y2="82" stroke="#4a9eff" stroke-width="1" opacity="0.6"/><circle cx="137" cy="69" r="3" fill="#4a9eff" opacity="0.6"/></g>
<g filter="url(#f1-soft)"><path d="M78 72 Q100 65 112 72" fill="none" stroke="#2a6aaa" stroke-width="1.5" stroke-dasharray="3 2" opacity="0.7"/><path d="M78 78 Q100 85 112 78" fill="none" stroke="#2a6aaa" stroke-width="1.5" stroke-dasharray="3 2" opacity="0.5"/></g>
<g filter="url(#f1-red)"><circle cx="100" cy="75" r="5" fill="#FF1744" opacity="0.9"/><circle cx="100" cy="75" r="9" fill="none" stroke="#FF1744" stroke-width="0.8" opacity="0.35"/></g>
<g filter="url(#f1-soft)" opacity="0.5"><line x1="56" y1="88" x2="56" y2="118" stroke="#1e4a80" stroke-width="1"/><line x1="137" y1="98" x2="137" y2="118" stroke="#1e4a80" stroke-width="1"/><line x1="56" y1="118" x2="137" y2="118" stroke="#1e4a80" stroke-width="1"/><circle cx="56" cy="118" r="2.5" fill="#2a6aaa" opacity="0.7"/><circle cx="137" cy="118" r="2.5" fill="#2a6aaa" opacity="0.7"/><circle cx="97" cy="118" r="2" fill="#2a6aaa" opacity="0.5"/></g>
<g filter="url(#f1-red)"><circle cx="56" cy="118" r="2" fill="#FF1744" opacity="0.7"/><circle cx="137" cy="118" r="2" fill="#FF1744" opacity="0.7"/></g>
</svg>
